<?xml version="1.0" encoding="UTF-8" standalone="no"?><!DOCTYPE svg PUBLIC "-//W3C//DTD SVG 1.1//EN" "http://www.w3.org/Graphics/SVG/1.1/DTD/svg11.dtd"><svg width="100%" height="100%" viewBox="0 0 4060 1356" version="1.1" xmlns="http://www.w3.org/2000/svg" xmlns:xlink="http://www.w3.org/1999/xlink" xml:space="preserve" xmlns:serif="http://www.serif.com/" style="fill-rule:evenodd;clip-rule:evenodd;stroke-linejoin:round;stroke-miterlimit:2;"><path d="M3638.97,69.099c0,-14.891 4.788,-29.937 14.733,-42.6c23.517,-30.071 67.05,-35.316 97.109,-11.787c18.866,14.775 88.275,80.579 156.996,185.462c88.625,135.221 140.625,282.909 150.366,427.042c16.7,247.062 -84.366,484.962 -300.425,707.062c-26.629,27.375 -70.408,27.95 -97.775,1.313c-27.362,-26.613 -27.954,-70.367 -1.333,-97.763c186.112,-191.287 274.171,-392.037 261.875,-596.675c-9.213,-152.441 -73.567,-280.704 -125.942,-361.475c-58.154,-89.691 -117.55,-146.841 -129.121,-156.166c-17.408,-13.625 -26.483,-33.9 -26.483,-54.413" style="fill:#183eff;fill-rule:nonzero;"/><path d="M3489.57,281.349c18.241,15.854 178.391,161.196 188.025,370.092c6.533,142.421 -58.242,286.012 -192.634,426.821c-26.354,27.641 -25.337,71.4 2.3,97.771c27.613,26.362 71.375,25.316 97.746,-2.296c161.467,-169.188 239.079,-347.084 230.709,-528.654c-12.013,-260.788 -198.142,-435.621 -235.317,-468.017c-28.783,-25.071 -72.471,-22.079 -97.55,6.7c-11.413,13.104 -17.008,29.292 -17.008,45.404c-0,19.317 8.037,38.471 23.729,52.179" style="fill:#183eff;fill-rule:nonzero;"/><path d="M3313.02,445.661c22.342,13.337 104.912,94.283 116.446,201.745c9.771,91.084 -33.371,182.263 -128.242,271.034c-27.883,26.075 -29.371,69.833 -3.262,97.7c26.071,27.883 69.825,29.375 97.737,3.279c159.813,-149.513 181.342,-292.833 171.263,-386.746c-17.013,-158.629 -130.692,-274.479 -183.079,-305.737c-32.788,-19.6 -75.23,-8.859 -94.792,23.912c-6.629,11.117 -9.783,23.329 -9.783,35.396c-0,23.504 12.033,46.475 33.712,59.417" style="fill:#183eff;fill-rule:nonzero;"/><path d="M2997.33,679.434c-0,-88.575 70.317,-160.996 158.037,-164.421l0,-143.262l-393.945,305.85l393.95,305.846l-0,-139.579c-87.738,-3.455 -158.042,-75.875 -158.042,-164.434" style="fill:#ffd000;fill-rule:nonzero;"/><path d="M3155.43,576.705c-55.717,0 -100.958,45.254 -100.958,100.888c-0,55.641 45.266,100.9 100.9,100.9c55.633,-0 100.891,-45.259 100.891,-100.9c0,-55.634 -45.229,-100.888 -100.833,-100.888" style="fill:#183eff;fill-rule:nonzero;"/><path d="M3017.43,371.752l-481.87,0l-0,611.696l481.87,0l-393.937,-305.846l393.937,-305.85Z" style="fill:#00d000;fill-rule:nonzero;"/><path d="M1506.9,822.82c-87.608,0 -137.408,-59.537 -137.408,-145.65c0,-85.746 49.8,-145.654 137.408,-145.654c86.134,-0 137.43,59.908 137.43,145.654c-0,86.113 -50.167,145.65 -137.43,145.65m0.025,-462.646c-197.787,0 -335.991,118.334 -335.991,316.984c-0,202.116 138.204,316.991 335.991,316.991c198.642,0 335.959,-114.875 335.959,-316.991c-0,-201.246 -137.317,-316.984 -335.959,-316.984" style="fill:#183eff;fill-rule:nonzero;"/><path d="M1265.65,877.562l-20.48,-22.971c6.321,8.125 13.184,15.783 20.479,22.971" style="fill:#183eff;fill-rule:nonzero;"/><path d="M1142.55,821.468c-34.309,19.721 -71.088,28.013 -99.2,28.013c-119.18,-0 -160.642,-88.959 -161.513,-167.563c-0.862,-78.604 44.904,-173.604 161.513,-173.604c30.995,-0 64.504,6.571 97.866,28.137c17.75,-46.125 44.929,-86.45 80.996,-119.583c0.858,-0.783 1.792,-1.521 2.671,-2.312c-55.125,-36.813 -115.892,-53.946 -181.534,-53.946c-227.162,-0 -331.67,164.958 -330.791,320.433c0.854,164.104 93.283,313.517 330.791,313.517c67.809,-0 130.863,-14.696 186.738,-49.688c-38.546,-32.891 -68.204,-74.5 -87.538,-123.404" style="fill:#183eff;fill-rule:nonzero;"/><path d="M2294.98,374.423l-158.921,204.709l-158.92,-204.709l-178.8,0l-0,47.759c63.645,61.446 99.5,149.096 99.5,255.416c-0,106.321 -35.855,193.967 -99.5,255.4l-0,46.038l169.27,-0l0,-359.321l151.155,182.246l30.237,-0l154.613,-183.1l-0,360.175l169.283,-0l-0,-604.613l-177.917,0Z" style="fill:#183eff;fill-rule:nonzero;"/><path d="M506.179,618.457l-154.883,183.134l-30.284,-0l-151.416,-182.271l-0,359.354l-169.596,-0l-0,-604.683l179.104,-0l159.217,204.729l159.204,-204.729l178.25,-0l0,604.683l-169.596,-0l0,-360.217Z" style="fill:#183eff;fill-rule:nonzero;"/></svg>